<svg width="3136" height="2689" viewBox="0 0 3136 2689" fill="none" xmlns="http://www.w3.org/2000/svg">
<g clip-path="url(#clip0_453_1120)">
<path d="M2608.89 1033.92V149.666V9.03777H2590.77C2516.97 10.7623 2445.39 34.4851 2385.23 77.1506C2325.07 119.816 2279.1 179.47 2253.23 248.43C2246.92 243.008 2240.76 237.368 2234.24 232.09C2054.85 86.1119 1823.49 0 1568.15 0C985.116 0 527.115 448.274 527.115 1033.92C527.115 1619.57 985.044 2068.42 1568.07 2068.42C1717.82 2068.86 1865.98 2037.9 2002.95 1977.54V1544.66C1883.43 1651.56 1728.6 1710.76 1568.07 1710.96C1197.56 1710.96 901.764 1399.34 901.764 1033.85C901.764 664.24 1197.56 356.884 1568.07 356.884C1934.17 356.884 2226.92 656.938 2233.87 1020.69V1836.48V1977.18H2252.07C2338.58 1975.18 2421.64 1942.97 2486.79 1886.15C2551.94 1829.34 2595.04 1751.53 2608.6 1666.28V1034.28L2608.89 1033.92Z" fill="#46B9A0"/>
<path d="M1390.1 2321.25C1276.17 2321.25 1210.04 2411.25 1210.04 2501.98C1210.04 2592.71 1276.17 2682.64 1390.1 2682.64C1504.03 2682.64 1570.16 2592.64 1570.16 2501.98C1570.16 2411.32 1504.1 2321.25 1390.1 2321.25ZM1390.1 2617.51C1317.24 2617.51 1274.94 2560 1274.94 2501.98C1274.94 2443.96 1317.24 2386.37 1390.1 2386.37C1462.96 2386.37 1505.26 2443.96 1505.26 2501.98C1505.26 2560 1462.96 2617.51 1390.1 2617.51Z" fill="#19191B"/>
<path d="M2724.88 2673.43H2727.34C2744.14 2672.92 2760.2 2666.41 2772.61 2655.07C2785.03 2643.74 2793 2628.34 2795.06 2611.64V2439.83H2724.88V2673.43Z" fill="#19191B"/>
<path d="M1017.55 2268.6H1014.94C998.148 2269.11 982.09 2275.62 969.671 2286.95C957.251 2298.28 949.289 2313.69 947.222 2330.39H940.632C923.12 2331.7 906.729 2339.52 894.672 2352.31C882.614 2365.09 875.758 2381.92 875.446 2399.5H945.774L947.15 2548.47C947.15 2619.98 980.829 2646.24 1052.97 2682.35L1083.97 2624.33L1046.23 2601.63C1025.3 2588.94 1017.26 2571.9 1017.26 2535.05L1015.88 2399.58H1047.75C1065.39 2398.43 1081.95 2390.69 1094.14 2377.89C1106.34 2365.08 1113.28 2348.15 1113.59 2330.46H1017.55V2268.6Z" fill="#19191B"/>
<path d="M2760.01 2328.57C2751.82 2328.18 2743.69 2330.26 2736.69 2334.53C2729.68 2338.81 2724.11 2345.08 2720.7 2352.56C2717.29 2360.03 2716.2 2368.35 2717.55 2376.45C2718.91 2384.55 2722.66 2392.06 2728.32 2398.01C2733.97 2403.96 2741.28 2408.07 2749.3 2409.83C2757.31 2411.58 2765.67 2410.89 2773.28 2407.84C2780.9 2404.79 2787.44 2399.53 2792.04 2392.73C2796.65 2385.93 2799.11 2377.91 2799.12 2369.7C2799.37 2359.05 2795.4 2348.74 2788.06 2341.03C2780.73 2333.32 2770.64 2328.84 2760.01 2328.57Z" fill="#19191B"/>
<path d="M724.721 2396.54V2522.52C724.721 2572.85 689.666 2608.97 645.847 2608.97C602.029 2608.97 566.973 2572.7 566.973 2522.52V2330.47H564.583C547.778 2330.98 531.711 2337.51 519.29 2348.85C506.869 2360.2 498.914 2375.62 496.863 2392.33V2528.9C496.863 2625.29 568.35 2682.65 645.847 2682.65C723.345 2682.65 794.904 2625.29 794.904 2528.9V2330.47H792.876C775.341 2331.01 758.639 2338.08 746.035 2350.3C733.431 2362.52 725.831 2379.01 724.721 2396.54Z" fill="#19191B"/>
<path d="M1998.93 2321.25C1949.75 2321.25 1913.97 2346.05 1901.16 2382.17H1899.85C1887.03 2345.9 1851.25 2321.25 1802.07 2321.25C1737.97 2321.25 1682.71 2371.58 1682.71 2459.04V2673.72H1684.38C1702.44 2673.2 1719.62 2665.76 1732.36 2652.92C1745.09 2640.08 1752.42 2622.84 1752.82 2604.75V2459.62C1752.82 2418.57 1777.74 2395.15 1806.78 2395.15C1840.46 2395.15 1865.45 2416.4 1865.45 2469.56V2673.65H1867.33C1884.98 2673.11 1901.79 2665.95 1914.43 2653.6C1927.06 2641.24 1934.6 2624.58 1935.56 2606.92V2469.34C1935.56 2416.18 1960.55 2394.93 1994.22 2394.93C2023.2 2394.93 2048.18 2418.36 2048.18 2459.41V2673.43H2051.01C2067.05 2672.96 2082.45 2667.04 2094.68 2656.64C2106.91 2646.24 2115.24 2631.98 2118.29 2616.21V2458.75C2118.29 2371.58 2063.03 2321.25 1998.93 2321.25Z" fill="#19191B"/>
<path d="M3136 2330.68H3038.73V2268.6H3036.34C3019.54 2269.09 3003.47 2275.6 2991.05 2286.93C2978.63 2298.27 2970.67 2313.68 2968.62 2330.39H2962.75C2945.23 2331.69 2928.84 2339.5 2916.77 2352.29C2904.71 2365.08 2897.86 2381.92 2897.57 2399.5H2967.9L2969.2 2548.47C2969.2 2619.98 3002.95 2646.24 3075.09 2682.35L3106.09 2624.33L3068.35 2601.63C3047.42 2588.94 3039.38 2571.9 3039.38 2535.05L3038.01 2399.58H3069.87C3087.52 2398.49 3104.11 2390.8 3116.36 2378.04C3128.6 2365.28 3135.62 2348.37 3136 2330.68Z" fill="#19191B"/>
<path d="M364.674 2326.05H361.488C348.542 2326.39 335.993 2330.59 325.441 2338.11C314.889 2345.63 306.813 2356.12 302.242 2368.26L298.91 2365.36C265.862 2338.55 224.542 2324.06 182.011 2324.38C133.739 2324.38 87.4437 2343.58 53.3099 2377.76C19.1762 2411.94 0 2458.3 0 2506.64C0 2554.97 19.1762 2601.33 53.3099 2635.51C87.4437 2669.69 133.739 2688.89 182.011 2688.89C208.299 2688.97 234.309 2683.51 258.35 2672.86V2596.57C237.393 2615.45 210.205 2625.91 182.011 2625.94C158.453 2626.39 135.289 2619.84 115.449 2607.12C95.6083 2594.39 79.9818 2576.06 70.5451 2554.44C61.1085 2532.82 58.2855 2508.88 62.433 2485.66C66.5806 2462.43 77.5126 2440.96 93.8466 2423.95C110.181 2406.95 131.183 2395.18 154.199 2390.12C177.215 2385.07 201.21 2386.96 223.151 2395.56C245.092 2404.16 263.993 2419.09 277.465 2438.45C290.937 2457.8 298.375 2480.73 298.838 2504.31V2672.94H302.024C317.178 2672.53 331.716 2666.85 343.137 2656.87C354.558 2646.89 362.148 2633.23 364.602 2618.25L364.674 2326.05Z" fill="#19191B"/>
<path d="M2593.88 2326.03H2590.7C2577.75 2326.38 2565.2 2330.58 2554.65 2338.1C2544.1 2345.62 2536.02 2356.11 2531.45 2368.24L2528.12 2365.34C2495.06 2338.56 2453.74 2324.1 2411.22 2324.44C2362.95 2324.44 2316.65 2343.64 2282.52 2377.82C2248.39 2412 2229.21 2458.36 2229.21 2506.7C2229.21 2555.03 2248.39 2601.39 2282.52 2635.57C2316.65 2669.75 2362.95 2688.95 2411.22 2688.95C2437.51 2689.03 2463.52 2683.57 2487.56 2672.92V2596.55C2466.6 2615.44 2439.41 2625.9 2411.22 2625.93C2387.66 2626.38 2364.5 2619.83 2344.66 2607.1C2324.82 2594.38 2309.19 2576.05 2299.75 2554.43C2290.32 2532.81 2287.5 2508.87 2291.64 2485.64C2295.79 2462.42 2306.72 2440.95 2323.06 2423.94C2339.39 2406.94 2360.39 2395.16 2383.41 2390.11C2406.42 2385.06 2430.42 2386.95 2452.36 2395.55C2474.3 2404.15 2493.2 2419.08 2506.67 2438.43C2520.15 2457.79 2527.58 2480.71 2528.05 2504.3V2672.92H2531.23C2546.41 2672.6 2560.99 2666.95 2572.43 2656.95C2583.87 2646.96 2591.44 2633.25 2593.81 2618.24L2593.88 2326.03Z" fill="#19191B"/>
</g>
<defs>
<clipPath id="clip0_453_1120">
<rect width="3136" height="2688.95" fill="white"/>
</clipPath>
</defs>
</svg>
