<svg width="754" height="313" viewBox="0 0 754 313" fill="none" xmlns="http://www.w3.org/2000/svg">
<g filter="url(#filter0_d_2_40370)">
<g clip-path="url(#clip0_2_40370)">
<g filter="url(#filter1_b_2_40370)">
<path d="M34 58.5738C34 38.0522 50.636 21.4163 71.1575 21.4163H682.399C702.921 21.4163 719.557 38.0523 719.557 58.5738V228.57C719.557 249.091 702.921 265.727 682.399 265.727H71.1575C50.636 265.727 34 249.091 34 228.57V58.5738Z" fill="#2D4653"/>
</g>
<g clip-path="url(#clip1_2_40370)">
<path d="M352.424 118.053C334.25 118.053 323.702 132.391 323.702 146.845C323.702 161.298 334.25 175.625 352.424 175.625C370.598 175.625 381.147 161.287 381.147 146.845C381.147 132.403 370.61 118.053 352.424 118.053ZM352.424 165.25C340.801 165.25 334.054 156.088 334.054 146.845C334.054 137.602 340.801 128.428 352.424 128.428C364.047 128.428 370.795 137.602 370.795 146.845C370.795 156.088 364.047 165.25 352.424 165.25Z" fill="white"/>
<path d="M565.348 174.157H565.741C568.42 174.076 570.981 173.039 572.963 171.233C574.944 169.428 576.214 166.974 576.544 164.314V136.943H565.348V174.157Z" fill="white"/>
<path d="M292.995 109.665H292.58C289.9 109.747 287.339 110.784 285.358 112.59C283.377 114.395 282.107 116.849 281.777 119.509H280.725C277.932 119.719 275.317 120.964 273.394 123.001C271.471 125.037 270.377 127.719 270.327 130.52H281.546L281.765 154.251C281.765 165.643 287.138 169.825 298.645 175.579L303.59 166.336L297.571 162.72C294.232 160.698 292.949 157.983 292.949 152.114L292.73 130.531H297.813C300.626 130.349 303.268 129.116 305.213 127.076C307.159 125.036 308.266 122.339 308.316 119.521H292.995V109.665Z" fill="white"/>
<path d="M570.951 119.221C569.644 119.158 568.348 119.489 567.231 120.17C566.113 120.851 565.225 121.851 564.681 123.041C564.137 124.231 563.962 125.557 564.179 126.848C564.395 128.138 564.993 129.334 565.896 130.282C566.798 131.23 567.964 131.885 569.242 132.164C570.521 132.443 571.854 132.333 573.069 131.848C574.284 131.363 575.326 130.524 576.061 129.441C576.795 128.358 577.189 127.08 577.19 125.772C577.231 124.076 576.596 122.433 575.426 121.205C574.257 119.977 572.647 119.263 570.951 119.221Z" fill="white"/>
<path d="M246.283 130.047V150.116C246.283 158.134 240.691 163.888 233.701 163.888C226.711 163.888 221.119 158.111 221.119 150.116V119.522H220.738C218.057 119.604 215.494 120.643 213.513 122.451C211.532 124.258 210.263 126.715 209.936 129.377V151.133C209.936 166.488 221.339 175.627 233.701 175.627C246.064 175.627 257.479 166.488 257.479 151.133V119.522H257.155C254.358 119.609 251.694 120.735 249.683 122.682C247.673 124.628 246.46 127.255 246.283 130.047Z" fill="white"/>
<path d="M449.545 118.053C441.7 118.053 435.993 122.004 433.948 127.758H433.74C431.695 121.981 425.987 118.053 418.142 118.053C407.917 118.053 399.102 126.071 399.102 140.005V174.204H399.368C402.249 174.122 404.989 172.936 407.021 170.891C409.053 168.846 410.222 166.098 410.286 163.216V140.097C410.286 133.558 414.26 129.826 418.893 129.826C424.266 129.826 428.252 133.211 428.252 141.68V174.192H428.552C431.368 174.107 434.049 172.967 436.065 170.998C438.081 169.03 439.284 166.376 439.436 163.563V141.646C439.436 133.177 443.422 129.792 448.794 129.792C453.416 129.792 457.402 133.523 457.402 140.063V174.158H457.852C460.411 174.084 462.868 173.141 464.819 171.484C466.77 169.827 468.098 167.555 468.586 165.042V139.959C468.586 126.071 459.77 118.053 449.545 118.053Z" fill="white"/>
<path d="M630.929 119.555H615.413V109.665H615.031C612.352 109.745 609.789 110.781 607.807 112.587C605.825 114.393 604.556 116.848 604.229 119.509H603.293C600.498 119.716 597.882 120.961 595.958 122.998C594.034 125.035 592.942 127.718 592.894 130.52H604.113L604.321 154.251C604.321 165.643 609.705 169.825 621.213 175.579L626.157 166.336L620.138 162.72C616.799 160.698 615.517 157.983 615.517 152.114L615.297 130.531H620.381C623.195 130.358 625.842 129.134 627.795 127.101C629.749 125.067 630.868 122.374 630.929 119.555Z" fill="white"/>
<path d="M544.451 118.816H543.943C541.878 118.871 539.876 119.541 538.193 120.738C536.51 121.936 535.221 123.608 534.492 125.54L533.961 125.078C528.687 120.811 522.096 118.508 515.313 118.562C507.613 118.562 500.228 121.621 494.783 127.066C489.338 132.511 486.279 139.896 486.279 147.596C486.279 155.297 489.338 162.682 494.783 168.127C500.228 173.572 507.613 176.631 515.313 176.631C519.506 176.644 523.656 175.774 527.491 174.077V161.911C524.147 164.92 519.81 166.586 515.313 166.591C511.555 166.663 507.86 165.619 504.695 163.592C501.53 161.564 499.037 158.644 497.532 155.2C496.027 151.756 495.576 147.943 496.238 144.243C496.9 140.543 498.643 137.122 501.249 134.413C503.855 131.704 507.205 129.829 510.876 129.024C514.548 128.219 518.376 128.52 521.876 129.89C525.376 131.261 528.391 133.638 530.54 136.722C532.689 139.805 533.875 143.457 533.949 147.215V174.077H534.457C536.879 174.026 539.205 173.125 541.029 171.533C542.854 169.941 544.061 167.758 544.44 165.366L544.451 118.816Z" fill="white"/>
<path d="M189.036 142.917V114.479V109.956H188.454C186.087 110.012 183.79 110.775 181.86 112.147C179.93 113.519 178.455 115.437 177.625 117.655C177.423 117.481 177.225 117.299 177.016 117.13C171.261 112.435 163.839 109.666 155.647 109.666C136.942 109.666 122.249 124.082 122.249 142.917C122.249 161.752 136.94 176.187 155.645 176.187C160.449 176.201 165.202 175.205 169.596 173.264V159.343C165.762 162.781 160.795 164.685 155.645 164.691C143.758 164.691 134.268 154.669 134.268 142.915C134.268 131.028 143.758 121.143 155.645 121.143C167.39 121.143 176.781 130.793 177.005 142.491V168.728V173.253H177.588C180.364 173.188 183.028 172.152 185.119 170.325C187.209 168.498 188.592 165.996 189.026 163.254V142.929L189.036 142.917Z" fill="white"/>
</g>
</g>
</g>
<defs>
<filter id="filter0_d_2_40370" x="0" y="0.41626" width="753.557" height="312.311" filterUnits="userSpaceOnUse" color-interpolation-filters="sRGB">
<feFlood flood-opacity="0" result="BackgroundImageFix"/>
<feColorMatrix in="SourceAlpha" type="matrix" values="0 0 0 0 0 0 0 0 0 0 0 0 0 0 0 0 0 0 127 0" result="hardAlpha"/>
<feOffset dy="13"/>
<feGaussianBlur stdDeviation="17"/>
<feComposite in2="hardAlpha" operator="out"/>
<feColorMatrix type="matrix" values="0 0 0 0 0 0 0 0 0 0 0 0 0 0 0 0 0 0 0.14 0"/>
<feBlend mode="normal" in2="BackgroundImageFix" result="effect1_dropShadow_2_40370"/>
<feBlend mode="normal" in="SourceGraphic" in2="effect1_dropShadow_2_40370" result="shape"/>
</filter>
<filter id="filter1_b_2_40370" x="29.8685" y="17.2848" width="693.82" height="252.574" filterUnits="userSpaceOnUse" color-interpolation-filters="sRGB">
<feFlood flood-opacity="0" result="BackgroundImageFix"/>
<feGaussianBlur in="BackgroundImage" stdDeviation="2.06573"/>
<feComposite in2="SourceAlpha" operator="in" result="effect1_backgroundBlur_2_40370"/>
<feBlend mode="normal" in="SourceGraphic" in2="effect1_backgroundBlur_2_40370" result="shape"/>
</filter>
<clipPath id="clip0_2_40370">
<rect x="34" y="21.4163" width="685.557" height="244.311" rx="37.1575" fill="white"/>
</clipPath>
<clipPath id="clip1_2_40370">
<rect width="509.058" height="67.3211" fill="white" transform="translate(122.249 109.666)"/>
</clipPath>
</defs>
</svg>
