<svg width="470" height="63" viewBox="0 0 470 63" fill="none" xmlns="http://www.w3.org/2000/svg">
<path d="M208.338 7.8907C191.263 7.8907 181.352 21.3798 181.352 34.9777C181.352 48.5755 191.263 62.0538 208.338 62.0538C225.412 62.0538 235.323 48.5646 235.323 34.9777C235.323 21.3907 225.423 7.8907 208.338 7.8907ZM208.338 52.2929C197.418 52.2929 191.078 43.6733 191.078 34.9777C191.078 26.282 197.418 17.6516 208.338 17.6516C219.258 17.6516 225.597 26.282 225.597 34.9777C225.597 43.6733 219.258 52.2929 208.338 52.2929Z" fill="#19191B"/>
<path d="M408.385 60.6735H408.754C411.271 60.5967 413.677 59.6209 415.539 57.9225C417.4 56.2241 418.593 53.9151 418.903 51.4126V25.6626H408.385V60.6735Z" fill="#19191B"/>
<path d="M152.503 0H152.112C149.595 0.076842 147.188 1.0526 145.327 2.751C143.466 4.44939 142.272 6.75841 141.963 9.26087H140.975C138.35 9.45818 135.894 10.6296 134.087 12.5457C132.28 14.4618 131.252 16.9845 131.205 19.6196H141.745L141.952 41.9457C141.952 52.6631 146.999 56.5979 157.811 62.0109L162.457 53.3153L156.801 49.9131C153.664 48.0109 152.459 45.4566 152.459 39.9348L152.253 19.6305H157.029C159.672 19.459 162.154 18.2985 163.982 16.3795C165.81 14.4605 166.85 11.9233 166.896 9.27175H152.503V0Z" fill="#19191B"/>
<path d="M413.649 8.9892C412.421 8.93057 411.204 9.24161 410.154 9.8822C409.104 10.5228 408.27 11.4636 407.759 12.5833C407.248 13.703 407.083 14.9504 407.286 16.1645C407.49 17.3787 408.052 18.5041 408.9 19.3956C409.747 20.2871 410.843 20.9039 412.044 21.1665C413.245 21.4291 414.497 21.3254 415.639 20.8688C416.781 20.4122 417.76 19.6237 418.45 18.6048C419.14 17.5859 419.51 16.3834 419.511 15.1523C419.549 13.5569 418.953 12.0117 417.854 10.8561C416.755 9.70056 415.243 9.02907 413.649 8.9892Z" fill="#19191B"/>
<path d="M108.616 19.1753V38.0558C108.616 45.5993 103.362 51.0123 96.7947 51.0123C90.2275 51.0123 84.9737 45.5776 84.9737 38.0558V9.27318H84.6155C82.0968 9.3504 79.6889 10.3277 77.8273 12.0283C75.9657 13.7289 74.7734 16.0405 74.4661 18.5449V39.0123C74.4661 53.458 85.1799 62.0558 96.7947 62.0558C108.41 62.0558 119.134 53.458 119.134 39.0123V9.27318H118.83C116.202 9.3545 113.699 10.4144 111.81 12.2457C109.921 14.0769 108.782 16.5478 108.616 19.1753Z" fill="#19191B"/>
<path d="M299.585 7.8907C292.214 7.8907 286.852 11.6081 284.931 17.0211H284.735C282.814 11.5863 277.452 7.8907 270.081 7.8907C260.475 7.8907 252.192 15.4342 252.192 28.5429V60.7168H252.442C255.149 60.6394 257.723 59.5236 259.633 57.5998C261.542 55.676 262.64 53.0913 262.7 50.3799V28.6298C262.7 22.4777 266.434 18.9668 270.787 18.9668C275.834 18.9668 279.579 22.1516 279.579 30.119V60.706H279.862C282.507 60.6254 285.026 59.553 286.92 57.701C288.814 55.8491 289.944 53.3526 290.087 50.7059V30.0864C290.087 22.119 293.832 18.9342 298.879 18.9342C303.221 18.9342 306.966 22.445 306.966 28.5972V60.6734H307.39C309.794 60.6038 312.102 59.7165 313.935 58.1576C315.768 56.5988 317.016 54.4613 317.474 52.0972V28.4994C317.474 15.4342 309.192 7.8907 299.585 7.8907Z" fill="#19191B"/>
<path d="M470 9.30435H455.422V0H455.064C452.546 0.0746349 450.138 1.04963 448.276 2.74844C446.415 4.44725 445.222 6.75753 444.914 9.26087H444.035C441.41 9.45577 438.952 10.6265 437.144 12.5431C435.337 14.4597 434.31 16.9837 434.266 19.6196H444.806L445.001 41.9457C445.001 52.6631 450.059 56.5979 460.871 62.0109L465.517 53.3153L459.862 49.9131C456.724 48.0109 455.52 45.4566 455.52 39.9348L455.313 19.6305H460.089C462.734 19.4675 465.22 18.3155 467.056 16.4028C468.892 14.4901 469.942 11.9565 470 9.30435Z" fill="#19191B"/>
<path d="M54.6547 8.61037H54.177C52.2369 8.66235 50.3561 9.29184 48.7747 10.4185C47.1932 11.5452 45.9828 13.1181 45.2977 14.9365L44.7984 14.5017C39.8455 10.4837 33.6527 8.31289 27.2785 8.36039C20.0438 8.36039 13.1054 11.2382 7.98969 16.3608C2.87398 21.4834 0 28.4312 0 35.6756C0 42.9201 2.87398 49.8678 7.98969 54.9904C13.1054 60.113 20.0438 62.9908 27.2785 62.9908C31.2183 63.003 35.1165 62.1845 38.7196 60.5887V49.1539C35.5787 51.9841 31.5039 53.5519 27.2785 53.5561C23.7478 53.6242 20.2762 52.6424 17.3026 50.735C14.329 48.8276 11.9871 46.0801 10.5728 42.8399C9.15848 39.5998 8.73538 36.0125 9.35699 32.5316C9.9786 29.0506 11.617 25.8324 14.065 23.2839C16.513 20.7353 19.6607 18.9708 23.1102 18.2134C26.5596 17.4561 30.1558 17.7399 33.4442 19.029C36.7325 20.3181 39.5653 22.5546 41.5844 25.4558C43.6035 28.3569 44.7182 31.7924 44.7875 35.3278V60.5996H45.2651C47.5362 60.5386 49.715 59.6869 51.4267 58.1911C53.1385 56.6953 54.2761 54.6488 54.6438 52.4039L54.6547 8.61037Z" fill="#19191B"/>
<path d="M388.752 8.6085H388.274C386.334 8.66047 384.453 9.28997 382.872 10.4167C381.29 11.5434 380.08 13.1162 379.395 14.9346L378.895 14.4998C373.941 10.4857 367.748 8.31879 361.376 8.36937C354.141 8.36937 347.203 11.2472 342.087 16.3698C336.971 21.4924 334.097 28.4402 334.097 35.6846C334.097 42.9291 336.971 49.8768 342.087 54.9994C347.203 60.122 354.141 62.9999 361.376 62.9999C365.315 63.012 369.214 62.1935 372.817 60.5977V49.152C369.676 51.9823 365.601 53.5501 361.376 53.5542C357.845 53.6223 354.373 52.6406 351.4 50.7332C348.426 48.8257 346.084 46.0782 344.67 42.8381C343.256 39.5979 342.832 36.0106 343.454 32.5297C344.076 29.0488 345.714 25.8306 348.162 23.282C350.61 20.7334 353.758 18.9689 357.207 18.2115C360.657 17.4542 364.253 17.738 367.541 19.0271C370.83 20.3162 373.662 22.5528 375.682 25.4539C377.701 28.355 378.815 31.7905 378.885 35.3259V60.5977H379.362C381.637 60.5493 383.822 59.702 385.537 58.204C387.251 56.7059 388.385 54.6523 388.741 52.402L388.752 8.6085Z" fill="#19191B"/>
</svg>
