<svg width="219" height="188" viewBox="0 0 219 188" fill="none" xmlns="http://www.w3.org/2000/svg">
<g clip-path="url(#clip0_422_550)">
<path d="M175.557 72.6225V10.9485V1.14012H174.296C169.162 1.2604 164.181 2.91499 159.996 5.89077C155.81 8.86655 152.611 13.0273 150.811 17.837C150.372 17.4588 149.944 17.0654 149.49 16.6973C137.009 6.5158 120.912 0.509766 103.146 0.509766C62.5816 0.509766 30.7158 31.7754 30.7158 72.6225C30.7158 113.47 62.5765 144.776 103.141 144.776C113.56 144.806 123.868 142.647 133.398 138.437V108.245C125.082 115.701 114.31 119.83 103.141 119.844C77.3622 119.844 56.7823 98.109 56.7823 72.6174C56.7823 46.8384 77.3622 25.4013 103.141 25.4013C128.613 25.4013 148.981 46.3291 149.465 71.6996V128.598V138.411H150.731C156.75 138.272 162.529 136.025 167.062 132.063C171.594 128.101 174.594 122.674 175.536 116.727V72.6477L175.557 72.6225Z" fill="white"/>
<path d="M96.8375 161.84C88.9052 161.84 84.301 168.099 84.301 174.407C84.301 180.716 88.9052 186.969 96.8375 186.969C104.77 186.969 109.374 180.711 109.374 174.407C109.374 168.104 104.775 161.84 96.8375 161.84ZM96.8375 182.44C91.7644 182.44 88.8194 178.441 88.8194 174.407C88.8194 170.373 91.7644 166.369 96.8375 166.369C101.911 166.369 104.856 170.373 104.856 174.407C104.856 178.441 101.911 182.44 96.8375 182.44Z" fill="white"/>
<path d="M189.773 186.328H189.944C191.114 186.293 192.232 185.84 193.096 185.052C193.961 184.264 194.515 183.193 194.659 182.032V170.085H189.773V186.328Z" fill="white"/>
<path d="M70.8986 158.179H70.717C69.5477 158.215 68.4297 158.668 67.5649 159.456C66.7002 160.244 66.1458 161.315 66.002 162.476H65.5431C64.3238 162.567 63.1826 163.111 62.3431 164C61.5036 164.889 61.0262 166.059 61.0045 167.282H65.9011L65.9969 177.64C65.9969 182.612 68.3418 184.438 73.3645 186.949L75.5229 182.915L72.8955 181.336C71.4382 180.454 70.8784 179.269 70.8784 176.707L70.7826 167.287H73.0014C74.2292 167.207 75.3822 166.669 76.2314 165.779C77.0806 164.888 77.5639 163.711 77.5854 162.481H70.8986V158.179Z" fill="white"/>
<path d="M192.219 162.35C191.648 162.323 191.082 162.467 190.595 162.764C190.107 163.062 189.719 163.498 189.482 164.018C189.244 164.537 189.168 165.116 189.262 165.679C189.357 166.242 189.618 166.764 190.012 167.178C190.406 167.592 190.914 167.878 191.473 168C192.031 168.121 192.612 168.073 193.143 167.861C193.673 167.65 194.128 167.284 194.449 166.811C194.769 166.338 194.941 165.781 194.942 165.209C194.959 164.469 194.682 163.752 194.172 163.216C193.661 162.68 192.959 162.369 192.219 162.35Z" fill="white"/>
<path d="M50.51 167.076V175.835C50.51 179.335 48.0693 181.846 45.0184 181.846C41.9675 181.846 39.5267 179.325 39.5267 175.835V162.482H39.3603C38.1902 162.517 37.0716 162.971 36.2067 163.76C35.3419 164.549 34.788 165.621 34.6452 166.783V176.279C34.6452 182.981 39.6225 186.97 45.0184 186.97C50.4142 186.97 55.3965 182.981 55.3965 176.279V162.482H55.2553C54.0345 162.519 52.8716 163.011 51.994 163.861C51.1164 164.71 50.5873 165.857 50.51 167.076Z" fill="white"/>
<path d="M139.228 161.84C135.804 161.84 133.313 163.565 132.42 166.076H132.329C131.437 163.555 128.946 161.84 125.522 161.84C121.059 161.84 117.211 165.34 117.211 171.422V186.349H117.327C118.585 186.313 119.781 185.795 120.668 184.903C121.554 184.01 122.065 182.811 122.092 181.553V171.462C122.092 168.608 123.827 166.979 125.849 166.979C128.194 166.979 129.934 168.457 129.934 172.153V186.344H130.065C131.294 186.306 132.465 185.809 133.344 184.95C134.224 184.09 134.749 182.932 134.816 181.704V172.138C134.816 168.442 136.555 166.964 138.9 166.964C140.917 166.964 142.657 168.593 142.657 171.447V186.329H142.854C143.971 186.296 145.043 185.885 145.895 185.161C146.746 184.438 147.326 183.446 147.539 182.35V171.402C147.539 165.34 143.691 161.84 139.228 161.84Z" fill="white"/>
<path d="M218.397 162.496H211.625V158.179H211.458C210.289 158.214 209.17 158.666 208.305 159.455C207.44 160.243 206.886 161.315 206.743 162.476H206.335C205.115 162.566 203.973 163.11 203.133 163.999C202.294 164.888 201.817 166.059 201.796 167.282H206.693L206.783 177.64C206.783 182.612 209.133 184.438 214.156 186.949L216.314 182.915L213.687 181.336C212.23 180.454 211.67 179.269 211.67 176.707L211.574 167.287H213.793C215.021 167.211 216.177 166.677 217.029 165.789C217.882 164.902 218.37 163.727 218.397 162.496Z" fill="white"/>
<path d="M25.4415 162.174H25.2196C24.3183 162.198 23.4446 162.49 22.7099 163.013C21.9752 163.536 21.4129 164.265 21.0946 165.109L20.8626 164.907C18.5617 163.043 15.6847 162.036 12.7235 162.058C9.36246 162.058 6.13911 163.393 3.76253 165.77C1.38594 168.146 0.0507812 171.37 0.0507812 174.731C0.0507812 178.092 1.38594 181.315 3.76253 183.692C6.13911 186.068 9.36246 187.403 12.7235 187.403C14.5538 187.409 16.3647 187.029 18.0386 186.289V180.984C16.5794 182.297 14.6864 183.024 12.7235 183.026C11.0832 183.058 9.47042 182.602 8.089 181.717C6.70758 180.833 5.61957 179.558 4.96254 178.055C4.30551 176.551 4.10895 174.887 4.39773 173.272C4.68651 171.657 5.44765 170.164 6.58492 168.982C7.72219 167.799 9.18451 166.981 10.787 166.629C12.3895 166.278 14.0602 166.41 15.5878 167.008C17.1155 167.606 18.4315 168.643 19.3695 169.989C20.3075 171.335 20.8254 172.929 20.8576 174.569V186.294H21.0795C22.1345 186.266 23.1467 185.871 23.9419 185.177C24.7372 184.483 25.2656 183.533 25.4365 182.492L25.4415 162.174Z" fill="white"/>
<path d="M180.652 162.173H180.43C179.529 162.198 178.655 162.49 177.92 163.012C177.186 163.535 176.623 164.265 176.305 165.108L176.073 164.907C173.771 163.044 170.895 162.039 167.934 162.063C164.573 162.063 161.35 163.398 158.973 165.774C156.596 168.151 155.261 171.374 155.261 174.735C155.261 178.096 156.596 181.32 158.973 183.696C161.35 186.073 164.573 187.408 167.934 187.408C169.764 187.414 171.575 187.034 173.249 186.293V180.983C171.79 182.296 169.897 183.024 167.934 183.026C166.294 183.057 164.681 182.602 163.299 181.717C161.918 180.832 160.83 179.557 160.173 178.054C159.516 176.551 159.319 174.886 159.608 173.272C159.897 171.657 160.658 170.164 161.795 168.981C162.933 167.799 164.395 166.98 165.997 166.629C167.6 166.277 169.271 166.409 170.798 167.007C172.326 167.605 173.642 168.643 174.58 169.989C175.518 171.335 176.036 172.929 176.068 174.569V186.293H176.29C177.347 186.271 178.362 185.878 179.158 185.183C179.955 184.488 180.482 183.535 180.647 182.491L180.652 162.173Z" fill="white"/>
</g>
<defs>
<clipPath id="clip0_422_550">
<rect width="218.396" height="186.893" fill="white" transform="translate(0 0.510132)"/>
</clipPath>
</defs>
</svg>
